HIERARCHY
ROOT Hips
{
 OFFSET 0.000000 0.000000 0.000000
 CHANNELS 6 Xposition Yposition Zposition Yrotation Xrotation Zrotation
 JOINT Chest
 {
  OFFSET 0.000000 9.585900 0.002600
  CHANNELS 3 Yrotation Xrotation Zrotation
  JOINT Chest2
  {
   OFFSET 0.000000 9.601200 -0.005300
   CHANNELS 3 Yrotation Xrotation Zrotation
   JOINT Chest3
   {
    OFFSET 0.000000 9.561800 0.000000
    CHANNELS 3 Yrotation Xrotation Zrotation
    JOINT Chest4
    {
     OFFSET 0.000000 9.552100 0.000000
     CHANNELS 3 Yrotation Xrotation Zrotation
     JOINT Neck
     {
      OFFSET 0.000000 14.453000 0.000000
      CHANNELS 3 Yrotation Xrotation Zrotation
      JOINT Head
      {
       OFFSET 0.000000 8.936500 -0.011300
       CHANNELS 3 Yrotation Xrotation Zrotation
       End Site
       {
        OFFSET 0.000000 17.073600 -0.006000
       }
      }
     }
     JOINT RightCollar
     {
      OFFSET -2.921100 9.558500 0.000000
      CHANNELS 3 Yrotation Xrotation Zrotation
      JOINT RightShoulder
      {
       OFFSET -13.519700 0.000000 0.000000
       CHANNELS 3 Yrotation Xrotation Zrotation
       JOINT RightElbow
       {
        OFFSET 0.000000 -29.696600 0.000000
        CHANNELS 3 Yrotation Xrotation Zrotation
        JOINT RightWrist
        {
         OFFSET 0.000000 -24.004700 0.000000
         CHANNELS 3 Yrotation Xrotation Zrotation
         End Site
         {
          OFFSET 0.000000 -17.728500 0.000000
         }
        }
       }
      }
     }
     JOINT LeftCollar
     {
      OFFSET 2.921100 9.558500 0.000000
      CHANNELS 3 Yrotation Xrotation Zrotation
      JOINT LeftShoulder
      {
       OFFSET 13.519700 0.000000 0.000000
       CHANNELS 3 Yrotation Xrotation Zrotation
       JOINT LeftElbow
       {
        OFFSET 0.000000 -29.696600 0.000000
        CHANNELS 3 Yrotation Xrotation Zrotation
        JOINT LeftWrist
        {
         OFFSET 0.000000 -24.004700 0.000000
         CHANNELS 3 Yrotation Xrotation Zrotation
         End Site
         {
          OFFSET 0.000000 -17.728500 0.000000
         }
        }
       }
      }
     }
    }
   }
  }
 }
 JOINT RightHip
 {
  OFFSET -7.771700 -0.012900 -0.001300
  CHANNELS 3 Yrotation Xrotation Zrotation
  JOINT RightKnee
  {
   OFFSET 0.000000 -40.869800 0.001200
   CHANNELS 3 Yrotation Xrotation Zrotation
   JOINT RightAnkle
   {
    OFFSET 0.000000 -39.717900 0.002100
    CHANNELS 3 Yrotation Xrotation Zrotation
    JOINT RightToe
    {
     OFFSET 0.000000 -4.965400 11.033500
     CHANNELS 3 Yrotation Xrotation Zrotation
     End Site
     {
      OFFSET 0.000000 -1.423100 5.872300
     }
    }
   }
  }
 }
 JOINT LeftHip
 {
  OFFSET 7.771700 -0.012900 -0.001300
  CHANNELS 3 Yrotation Xrotation Zrotation
  JOINT LeftKnee
  {
   OFFSET 0.000000 -40.869800 0.001200
   CHANNELS 3 Yrotation Xrotation Zrotation
   JOINT LeftAnkle
   {
    OFFSET 0.000000 -39.717900 0.002100
    CHANNELS 3 Yrotation Xrotation Zrotation
    JOINT LeftToe
    {
     OFFSET 0.000000 -4.965400 11.033500
     CHANNELS 3 Yrotation Xrotation Zrotation
     End Site
     {
      OFFSET 0.000000 -1.423100 5.872300
     }
    }
   }
  }
 }
}
MOTION
Frames: 13
Frame Time: 0.008333
0.000000 85.388000 0.000000 0.000000 -5.767877 0.000000 0.000000 11.653817 0.000000 0.000000 -5.885947 0.000000 0.000000 -0.000000 0.000000 0.000000 -0.000000 0.000000 0.000000 12.528835 0.000000 0.000000 0.711642 0.000000 0.000000 -0.000000 0.000000 0.000000 0.000000 -90.000000 0.000000 -2.309062 0.000000 0.000000 2.309062 0.000000 0.000000 -0.000000 0.000000 0.000000 -0.000000 90.000000 0.000000 -2.309062 0.000000 0.000000 2.309062 0.000000 0.000000 8.520406 0.000000 0.000000 1.905762 0.000000 -0.000000 -4.658285 0.000000 0.000000 -0.000000 0.000000 0.000000 8.520406 0.000000 0.000000 1.905762 0.000000 -0.000000 -4.658285 0.000000 0.000000 -0.000000 0.000000
-33.017131 48.683820 29.059947 173.789040 -30.969583 -0.448221 -0.685541 14.730660 1.751322 -0.524598 8.431535 1.419047 -0.644855 10.527090 1.764020 -0.550633 8.414339 1.416942 -0.114220 15.753054 -3.455947 1.099592 -6.546187 -6.409550 7.351221 4.671636 -3.951739 -1.292951 -18.188446 -9.207563 36.907057 -66.774894 -26.210115 12.458900 5.269908 -37.885377 -4.091177 1.356000 -5.760334 8.593001 -22.068329 -0.304662 -69.906080 -49.114662 47.426117 -10.162408 13.837298 33.313998 21.212465 -51.210296 -27.846865 -107.505572 70.009538 -98.231262 2.185467 -4.222683 3.648288 0.182715 -0.813152 0.076199 -2.683283 -53.133182 12.526206 109.419456 80.408806 106.983525 -4.917604 -10.980627 -1.623856 0.268622 0.698713 0.118748
-33.016191 48.683215 29.063026 173.790958 -30.964455 -0.449779 -0.658868 14.750379 1.762363 -0.515883 8.432917 1.422703 -0.613348 10.542906 1.771206 -0.580106 8.388207 1.421542 -0.060812 15.712252 -3.454119 1.021342 -6.635395 -6.376593 7.369423 4.565933 -4.028864 -1.357886 -18.090046 -9.124252 36.914714 -66.761343 -26.167211 12.447848 5.273466 -37.959908 -4.195967 1.190765 -5.843127 8.544685 -21.916987 -0.041422 -69.905354 -49.212661 47.395558 -10.134183 13.859630 33.374539 21.210239 -51.213203 -27.846944 -107.495149 70.008106 -98.218493 2.191101 -4.228954 3.645766 0.179211 -0.805788 0.077039 -2.687950 -53.140867 12.526034 109.415330 80.410108 106.982448 -4.916285 -10.979126 -1.624533 0.266347 0.699831 0.117181
-33.015026 48.682400 29.066637 173.792996 -30.957082 -0.451122 -0.638418 14.764924 1.771344 -0.519470 8.424246 1.423182 -0.586583 10.570172 1.775697 -0.519101 8.429435 1.426109 -0.127892 15.619919 -3.440693 1.001403 -6.738125 -6.364167 7.298446 4.406835 -4.085284 -1.369960 -18.022617 -9.090415 36.872184 -66.746347 -26.090154 12.454763 5.293065 -38.048615 -4.395612 0.922809 -5.929241 8.474948 -21.732024 0.321226 -69.887131 -49.353462 47.320021 -10.093354 13.887631 33.464652 21.213731 -51.217559 -27.850671 -107.484993 69.997593 -98.204063 2.203867 -4.236708 3.643959 0.174884 -0.797366 0.077232 -2.697207 -53.152042 12.530085 109.416004 80.412355 106.983260 -4.912239 -10.971861 -1.626191 0.267930 0.697428 0.116275
-33.012092 48.681015 29.071553 173.802048 -30.942293 -0.465932 -0.626260 14.774867 1.789968 -0.518613 8.413153 1.422767 -0.584830 10.578853 1.777380 -0.494685 8.477826 1.425489 -0.156195 15.545317 -3.432188 1.012348 -6.837781 -6.370168 7.283117 4.228375 -4.154582 -1.371823 -17.938047 -9.040933 36.862051 -66.700866 -26.026715 12.463065 5.314401 -38.134833 -4.568855 0.640397 -6.025747 8.392923 -21.517950 0.778801 -69.858620 -49.543413 47.193001 -10.034752 13.928287 33.591644 21.250161 -51.222696 -27.860434 -107.491563 69.985682 -98.183806 2.176111 -4.231448 3.643013 0.190683 -0.794782 0.085393 -2.732317 -53.176734 12.553315 109.442986 80.407782 107.008345 -4.897743 -10.954256 -1.624860 0.249527 0.685488 0.110475
-33.010854 48.680825 29.074237 173.805902 -30.940947 -0.466359 -0.619424 14.795496 1.795705 -0.503978 8.461725 1.425324 -0.594387 10.534574 1.776167 -0.509400 8.505937 1.424354 -0.129915 15.498337 -3.433657 1.034127 -6.934127 -6.395644 7.302377 4.028991 -4.233465 -1.333335 -17.841013 -8.997416 36.837234 -66.615504 -25.945469 12.419206 5.326334 -38.228139 -4.738870 0.360384 -6.120262 8.325770 -21.278241 1.306504 -69.858924 -49.776661 47.026942 -9.952425 13.988849 33.764270 21.274901 -51.216236 -27.872440 -107.496509 69.981228 -98.174293 2.162733 -4.231158 3.643382 0.196274 -0.792122 0.088360 -2.736263 -53.180501 12.552826 109.439905 80.408106 107.004907 -4.898203 -10.952593 -1.622576 0.245732 0.686303 0.108504
-33.009780 48.680183 29.077443 173.824566 -30.934078 -0.475897 -0.633794 14.800837 1.801044 -0.516879 8.467544 1.421601 -0.581716 10.566682 1.771658 -0.549104 8.486092 1.425747 -0.083099 15.476425 -3.448686 1.109598 -7.005262 -6.459139 7.340329 3.822761 -4.319025 -1.239727 -17.747591 -8.961052 36.786928 -66.479995 -25.838778 12.434744 5.356428 -38.301867 -4.911298 0.105379 -6.205229 8.289876 -21.022494 1.880587 -69.915540 -50.041286 46.831094 -9.848541 14.066230 33.975842 21.310306 -51.209175 -27.897676 -107.518191 69.966160 -98.165109 2.140273 -4.231338 3.635588 0.216806 -0.789350 0.099960 -2.766566 -53.194168 12.561268 109.440588 80.400677 106.999168 -4.897063 -10.939796 -1.616338 0.231969 0.679629 0.101995
-33.009666 48.678503 29.081673 173.863782 -30.916759 -0.496397 -0.673000 14.786645 1.803218 -0.547073 8.462957 1.414866 -0.627904 10.586232 1.763073 -0.557243 8.464762 1.416054 -0.012732 15.460732 -3.507407 1.256013 -7.007658 -6.538973 7.390745 3.634470 -4.408515 -1.076740 -17.682695 -8.929433 36.701014 -66.288995 -25.701651 12.451561 5.392467 -38.341311 -5.066996 -0.106376 -6.275771 8.275686 -20.761364 2.490293 -70.024060 -50.323315 46.609148 -9.727158 14.153049 34.204933 21.351806 -51.206386 -27.937706 -107.545178 69.957411 -98.157823 2.112244 -4.223866 3.637258 0.232541 -0.791789 0.110934 -2.826982 -53.219076 12.579373 109.423996 80.399520 106.970164 -4.884059 -10.918043 -1.617122 0.230661 0.671964 0.101803
-33.015986 48.677202 29.083312 173.940602 -30.909225 -0.505644 -0.750366 14.779210 1.771966 -0.604354 8.441090 1.402379 -0.688128 10.574387 1.748674 -0.575275 8.457953 1.405824 0.097139 15.480868 -3.562730 1.479694 -6.961636 -6.681436 7.443126 3.485934 -4.499230 -0.825826 -17.675253 -8.905080 36.543732 -66.044194 -25.510980 12.435078 5.441657 -38.339667 -5.192456 -0.270795 -6.321376 8.245085 -20.501275 3.121512 -70.153381 -50.608996 46.367529 -9.596931 14.250701 34.429881 21.381810 -51.185131 -28.010820 -107.574672 69.980029 -98.192901 2.097614 -4.212436 3.691595 0.206780 -0.799707 0.095724 -2.913845 -53.237905 12.571571 109.464677 80.390874 106.978323 -4.891434 -10.882510 -1.617993 0.238278 0.648439 0.104982
-33.020873 48.675131 29.084544 173.986951 -30.903112 -0.520492 -0.818437 14.760025 1.755574 -0.661450 8.414415 1.379921 -0.742123 10.554383 1.733484 -0.618102 8.441847 1.394477 0.252647 15.525599 -3.632789 1.792164 -6.866180 -6.866737 7.493985 3.383182 -4.583870 -0.472047 -17.726124 -8.909583 36.293424 -65.765259 -25.267516 12.396138 5.529752 -38.272482 -5.275954 -0.386542 -6.326518 8.143490 -20.248059 3.750442 -70.268998 -50.887261 46.114573 -9.469503 14.366287 34.627523 21.418372 -51.169873 -28.055842 -107.597570 69.991380 -98.205983 2.079076 -4.195850 3.717387 0.193843 -0.807961 0.099175 -2.952258 -53.247186 12.563836 109.421092 80.386743 106.927972 -4.898952 -10.881272 -1.624161 0.251718 0.654131 0.114285
-33.025930 48.671520 29.085738 174.030389 -30.895394 -0.548105 -0.941542 14.694740 1.702934 -0.666147 8.419274 1.380792 -0.802655 10.526373 1.715271 -0.666153 8.419275 1.380850 0.457108 15.587796 -3.714196 2.198603 -6.733918 -7.089684 7.537298 3.308016 -4.644311 0.002086 -17.796915 -8.992056 36.079648 -65.482968 -25.153908 12.278446 5.692947 -38.058461 -5.312797 -0.461811 -6.276004 7.944972 -20.007707 4.359632 -70.363437 -51.159943 45.846344 -9.360739 14.514849 34.762296 21.432679 -51.164663 -28.078250 -107.614900 70.001496 -98.215975 2.059525 -4.177570 3.747704 0.187286 -0.816652 0.094891 -3.043906 -53.262043 12.611457 109.484791 80.381695 106.965159 -4.910241 -10.872461 -1.630427 0.263398 0.649872 0.123208
-33.028006 48.665324 29.088450 174.083577 -30.879466 -0.614514 -1.008571 14.652561 1.715124 -0.723162 8.380590 1.357246 -0.863505 10.492315 1.695548 -0.714357 8.391863 1.366063 0.707354 15.661710 -3.803894 2.692086 -6.575110 -7.343401 7.559897 3.243659 -4.668289 0.579831 -17.846689 -9.177501 36.193215 -65.230594 -25.486995 12.020459 5.989925 -37.560526 -5.306916 -0.510649 -6.161095 7.656818 -19.780239 4.948710 -70.468287 -51.442736 45.564730 -9.291941 14.721260 34.763746 21.368672 -51.188277 -28.039846 -107.620598 70.005724 -98.219557 2.052263 -4.161404 3.756906 0.186012 -0.828664 0.095761 -3.307845 -53.290845 12.821620 109.762895 80.378951 107.149693 -4.931577 -10.825438 -1.637710 0.279141 0.608925 0.135557
-33.042773 48.655836 29.091670 174.129117 -30.853367 -0.613582 -1.083096 14.581134 1.650329 -0.768201 8.350425 1.343152 -0.920493 10.454756 1.676720 -0.759364 8.361692 1.351889 0.996711 15.744624 -3.900510 3.259351 -6.394725 -7.622658 7.552379 3.192845 -4.661429 1.175665 -17.860692 -9.441803 36.797974 -65.061097 -26.345736 11.678727 6.458681 -36.722020 -5.255225 -0.545232 -5.976383 7.271456 -19.551794 5.524231 -70.632785 -51.730943 45.309695 -9.281803 14.992199 34.527452 21.578067 -51.160936 -28.237833 -107.705156 69.992340 -98.260512 2.131082 -4.078149 3.871432 0.101594 -0.879944 0.056191 -3.457453 -53.325459 12.901388 109.910730 80.368655 107.222268 -4.997667 -10.786087 -1.665831 0.332950 0.580215 0.168751
